<?xml version="1.0" encoding="utf-8"?>
<!-- Generator: Adobe Illustrator 27.9.1, SVG Export Plug-In . SVG Version: 6.00 Build 0)  -->
<svg version="1.1" id="レイヤー_1" xmlns="http://www.w3.org/2000/svg" xmlns:xlink="http://www.w3.org/1999/xlink" x="0px"
	 y="0px" viewBox="0 0 200 200" style="enable-background:new 0 0 200 200;" xml:space="preserve">
<style type="text/css">
	.st0{fill:#35495E;}
	.st1{fill:#DDDDDD;}
	.st2{fill:#FF3E00;}
</style>
<g>
	<path class="st0" d="M150.27,107.94l-64.51,41.62c-4,2.58-9.34,1.42-11.92-2.58L27.6,75.13c-2.58-4-1.42-9.34,2.58-11.92
		l64.51-41.62c23.75-15.28,55.68-8.36,70.96,15.38l0,0C180.94,60.72,174.01,92.65,150.27,107.94z"/>
	<circle class="st1" cx="121.59" cy="64.63" r="23.1"/>
	<path class="st2" d="M148.92,156.99l-37.69,24.26c-23.75,15.28-55.68,8.36-70.96-15.38l0,0c-15.28-23.75-8.36-55.68,15.38-70.96
		l37.69-24.26c23.75-15.28,55.68-8.36,70.96,15.38l0,0C179.59,109.77,172.67,141.7,148.92,156.99z"/>
	<g>
		<circle class="st0" cx="121.59" cy="113.53" r="23.1"/>
	</g>
</g>
</svg>
